<?xml version="1.0" encoding="UTF-8"?><svg xmlns="http://www.w3.org/2000/svg" xmlns:xlink="http://www.w3.org/1999/xlink" fill-opacity="1" color-rendering="auto" color-interpolation="auto" text-rendering="auto" stroke="black" stroke-linecap="square" width="717" stroke-miterlimit="10" shape-rendering="auto" stroke-opacity="1" fill="black" stroke-dasharray="none" font-weight="normal" stroke-width="1" height="256" font-family="'Dialog'" font-style="normal" stroke-linejoin="miter" font-size="12" stroke-dashoffset="0" image-rendering="auto">
  <!--Generated by ySVG 2.5-->
  <defs id="genericDefs"/>
  <g>
    <defs id="defs1">
      <clipPath clipPathUnits="userSpaceOnUse" id="clipPath1">
        <path d="M0 0 L717 0 L717 256 L0 256 L0 0 Z"/>
      </clipPath>
      <clipPath clipPathUnits="userSpaceOnUse" id="clipPath2">
        <path d="M83 248 L800 248 L800 504 L83 504 L83 248 Z"/>
      </clipPath>
    </defs>
    <g fill="white" text-rendering="geometricPrecision" shape-rendering="geometricPrecision" transform="translate(-83,-248)" stroke="white">
      <rect x="83" width="717" height="256" y="248" clip-path="url(#clipPath2)" stroke="none"/>
    </g>
    <g fill="rgb(255,204,0)" text-rendering="geometricPrecision" shape-rendering="geometricPrecision" transform="matrix(1,0,0,1,-83,-248)" stroke="rgb(255,204,0)">
      <rect x="205" width="30" height="30" y="263" clip-path="url(#clipPath2)" stroke="none"/>
    </g>
    <g text-rendering="geometricPrecision" stroke-miterlimit="1.45" shape-rendering="geometricPrecision" font-family="sans-serif" transform="matrix(1,0,0,1,-83,-248)" stroke-linecap="butt">
      <text x="213.7773" xml:space="preserve" y="282.5352" clip-path="url(#clipPath2)" stroke="none">DI</text>
      <rect fill="none" x="205" width="30" height="30" y="263" clip-path="url(#clipPath2)"/>
    </g>
    <g fill="rgb(255,204,0)" text-rendering="geometricPrecision" shape-rendering="geometricPrecision" transform="matrix(1,0,0,1,-83,-248)" stroke="rgb(255,204,0)">
      <rect x="398" width="30" height="30" y="263" clip-path="url(#clipPath2)" stroke="none"/>
    </g>
    <g text-rendering="geometricPrecision" stroke-miterlimit="1.45" shape-rendering="geometricPrecision" font-family="sans-serif" transform="matrix(1,0,0,1,-83,-248)" stroke-linecap="butt">
      <text x="407.1318" xml:space="preserve" y="282.5352" clip-path="url(#clipPath2)" stroke="none">AI</text>
      <rect fill="none" x="398" width="30" height="30" y="263" clip-path="url(#clipPath2)"/>
    </g>
    <g fill="rgb(255,204,0)" text-rendering="geometricPrecision" shape-rendering="geometricPrecision" transform="matrix(1,0,0,1,-83,-248)" stroke="rgb(255,204,0)">
      <rect x="591" width="30" height="30" y="268" clip-path="url(#clipPath2)" stroke="none"/>
    </g>
    <g text-rendering="geometricPrecision" stroke-miterlimit="1.45" shape-rendering="geometricPrecision" font-family="sans-serif" transform="matrix(1,0,0,1,-83,-248)" stroke-linecap="butt">
      <text x="598.4121" xml:space="preserve" y="287.5352" clip-path="url(#clipPath2)" stroke="none">EG</text>
      <rect fill="none" x="591" width="30" height="30" y="268" clip-path="url(#clipPath2)"/>
    </g>
    <g fill="rgb(255,204,0)" text-rendering="geometricPrecision" shape-rendering="geometricPrecision" transform="matrix(1,0,0,1,-83,-248)" stroke="rgb(255,204,0)">
      <rect x="118" width="89" height="30" y="358" clip-path="url(#clipPath2)" stroke="none"/>
    </g>
    <g text-rendering="geometricPrecision" stroke-miterlimit="1.45" shape-rendering="geometricPrecision" font-family="sans-serif" transform="matrix(1,0,0,1,-83,-248)" stroke-linecap="butt">
      <text x="132.8955" xml:space="preserve" y="377.5352" clip-path="url(#clipPath2)" stroke="none">E4CTS201</text>
      <rect fill="none" x="118" width="89" height="30" y="358" clip-path="url(#clipPath2)"/>
    </g>
    <g fill="rgb(255,204,0)" text-rendering="geometricPrecision" shape-rendering="geometricPrecision" transform="matrix(1,0,0,1,-83,-248)" stroke="rgb(255,204,0)">
      <rect x="98" y="459" clip-path="url(#clipPath2)" width="44" rx="4" ry="4" height="30" stroke="none"/>
    </g>
    <g text-rendering="geometricPrecision" stroke-miterlimit="1.45" shape-rendering="geometricPrecision" font-family="sans-serif" transform="matrix(1,0,0,1,-83,-248)" stroke-linecap="butt">
      <text x="104.7803" xml:space="preserve" y="478.5352" clip-path="url(#clipPath2)" stroke="none">value</text>
      <rect x="98" y="459" clip-path="url(#clipPath2)" fill="none" width="44" rx="4" ry="4" height="30"/>
    </g>
    <g fill="rgb(255,204,0)" text-rendering="geometricPrecision" shape-rendering="geometricPrecision" transform="matrix(1,0,0,1,-83,-248)" stroke="rgb(255,204,0)">
      <rect x="177" y="459" clip-path="url(#clipPath2)" width="30" rx="4" ry="4" height="30" stroke="none"/>
    </g>
    <g text-rendering="geometricPrecision" stroke-miterlimit="1.45" shape-rendering="geometricPrecision" font-family="sans-serif" transform="matrix(1,0,0,1,-83,-248)" stroke-linecap="butt">
      <text x="188.2236" xml:space="preserve" y="478.5352" clip-path="url(#clipPath2)" stroke="none">q</text>
      <rect x="177" y="459" clip-path="url(#clipPath2)" fill="none" width="30" rx="4" ry="4" height="30"/>
    </g>
    <g fill="rgb(255,204,0)" text-rendering="geometricPrecision" shape-rendering="geometricPrecision" transform="matrix(1,0,0,1,-83,-248)" stroke="rgb(255,204,0)">
      <rect x="245" width="89" height="30" y="358" clip-path="url(#clipPath2)" stroke="none"/>
    </g>
    <g text-rendering="geometricPrecision" stroke-miterlimit="1.45" shape-rendering="geometricPrecision" font-family="sans-serif" transform="matrix(1,0,0,1,-83,-248)" stroke-linecap="butt">
      <text x="259.8955" xml:space="preserve" y="377.5352" clip-path="url(#clipPath2)" stroke="none">E4CTS202</text>
      <rect fill="none" x="245" width="89" height="30" y="358" clip-path="url(#clipPath2)"/>
    </g>
    <g fill="rgb(255,204,0)" text-rendering="geometricPrecision" shape-rendering="geometricPrecision" transform="matrix(1,0,0,1,-83,-248)" stroke="rgb(255,204,0)">
      <rect x="237" y="459" clip-path="url(#clipPath2)" width="44" rx="4" ry="4" height="30" stroke="none"/>
    </g>
    <g text-rendering="geometricPrecision" stroke-miterlimit="1.45" shape-rendering="geometricPrecision" font-family="sans-serif" transform="matrix(1,0,0,1,-83,-248)" stroke-linecap="butt">
      <text x="243.7803" xml:space="preserve" y="478.5352" clip-path="url(#clipPath2)" stroke="none">value</text>
      <rect x="237" y="459" clip-path="url(#clipPath2)" fill="none" width="44" rx="4" ry="4" height="30"/>
    </g>
    <g fill="rgb(255,204,0)" text-rendering="geometricPrecision" shape-rendering="geometricPrecision" transform="matrix(1,0,0,1,-83,-248)" stroke="rgb(255,204,0)">
      <rect x="316" y="459" clip-path="url(#clipPath2)" width="30" rx="4" ry="4" height="30" stroke="none"/>
    </g>
    <g text-rendering="geometricPrecision" stroke-miterlimit="1.45" shape-rendering="geometricPrecision" font-family="sans-serif" transform="matrix(1,0,0,1,-83,-248)" stroke-linecap="butt">
      <text x="327.2236" xml:space="preserve" y="478.5352" clip-path="url(#clipPath2)" stroke="none">q</text>
      <rect x="316" y="459" clip-path="url(#clipPath2)" fill="none" width="30" rx="4" ry="4" height="30"/>
    </g>
    <g fill="rgb(255,204,0)" text-rendering="geometricPrecision" shape-rendering="geometricPrecision" transform="matrix(1,0,0,1,-83,-248)" stroke="rgb(255,204,0)">
      <rect x="385" width="89" height="30" y="358" clip-path="url(#clipPath2)" stroke="none"/>
    </g>
    <g text-rendering="geometricPrecision" stroke-miterlimit="1.45" shape-rendering="geometricPrecision" font-family="sans-serif" transform="matrix(1,0,0,1,-83,-248)" stroke-linecap="butt">
      <text x="400.2266" xml:space="preserve" y="377.5352" clip-path="url(#clipPath2)" stroke="none">E42VV_00</text>
      <rect fill="none" x="385" width="89" height="30" y="358" clip-path="url(#clipPath2)"/>
    </g>
    <g fill="rgb(255,204,0)" text-rendering="geometricPrecision" shape-rendering="geometricPrecision" transform="matrix(1,0,0,1,-83,-248)" stroke="rgb(255,204,0)">
      <rect x="376" y="459" clip-path="url(#clipPath2)" width="44" rx="4" ry="4" height="30" stroke="none"/>
    </g>
    <g text-rendering="geometricPrecision" stroke-miterlimit="1.45" shape-rendering="geometricPrecision" font-family="sans-serif" transform="matrix(1,0,0,1,-83,-248)" stroke-linecap="butt">
      <text x="382.7803" xml:space="preserve" y="478.5352" clip-path="url(#clipPath2)" stroke="none">value</text>
      <rect x="376" y="459" clip-path="url(#clipPath2)" fill="none" width="44" rx="4" ry="4" height="30"/>
    </g>
    <g fill="rgb(255,204,0)" text-rendering="geometricPrecision" shape-rendering="geometricPrecision" transform="matrix(1,0,0,1,-83,-248)" stroke="rgb(255,204,0)">
      <rect x="455" y="459" clip-path="url(#clipPath2)" width="30" rx="4" ry="4" height="30" stroke="none"/>
    </g>
    <g text-rendering="geometricPrecision" stroke-miterlimit="1.45" shape-rendering="geometricPrecision" font-family="sans-serif" transform="matrix(1,0,0,1,-83,-248)" stroke-linecap="butt">
      <text x="466.2236" xml:space="preserve" y="478.5352" clip-path="url(#clipPath2)" stroke="none">q</text>
      <rect x="455" y="459" clip-path="url(#clipPath2)" fill="none" width="30" rx="4" ry="4" height="30"/>
    </g>
    <g fill="rgb(255,204,0)" text-rendering="geometricPrecision" shape-rendering="geometricPrecision" transform="matrix(1,0,0,1,-83,-248)" stroke="rgb(255,204,0)">
      <rect x="510" y="459" clip-path="url(#clipPath2)" width="44" rx="4" ry="4" height="30" stroke="none"/>
    </g>
    <g text-rendering="geometricPrecision" stroke-miterlimit="1.45" shape-rendering="geometricPrecision" font-family="sans-serif" transform="matrix(1,0,0,1,-83,-248)" stroke-linecap="butt">
      <text x="514.1641" xml:space="preserve" y="478.5352" clip-path="url(#clipPath2)" stroke="none">escala</text>
      <rect x="510" y="459" clip-path="url(#clipPath2)" fill="none" width="44" rx="4" ry="4" height="30"/>
    </g>
    <g fill="rgb(255,204,0)" text-rendering="geometricPrecision" shape-rendering="geometricPrecision" transform="matrix(1,0,0,1,-83,-248)" stroke="rgb(255,204,0)">
      <rect x="644" width="89" height="30" y="358" clip-path="url(#clipPath2)" stroke="none"/>
    </g>
    <g text-rendering="geometricPrecision" stroke-miterlimit="1.45" shape-rendering="geometricPrecision" font-family="sans-serif" transform="matrix(1,0,0,1,-83,-248)" stroke-linecap="butt">
      <text x="659.2266" xml:space="preserve" y="377.5352" clip-path="url(#clipPath2)" stroke="none">E42VV_00</text>
      <rect fill="none" x="644" width="89" height="30" y="358" clip-path="url(#clipPath2)"/>
    </g>
    <g fill="rgb(255,204,0)" text-rendering="geometricPrecision" shape-rendering="geometricPrecision" transform="matrix(1,0,0,1,-83,-248)" stroke="rgb(255,204,0)">
      <rect x="592.5" y="459" clip-path="url(#clipPath2)" width="44" rx="4" ry="4" height="30" stroke="none"/>
    </g>
    <g text-rendering="geometricPrecision" stroke-miterlimit="1.45" shape-rendering="geometricPrecision" font-family="sans-serif" transform="matrix(1,0,0,1,-83,-248)" stroke-linecap="butt">
      <text x="602.9893" xml:space="preserve" y="478.5352" clip-path="url(#clipPath2)" stroke="none">text</text>
      <rect x="592.5" y="459" clip-path="url(#clipPath2)" fill="none" width="44" rx="4" ry="4" height="30"/>
    </g>
    <g fill="rgb(255,204,0)" text-rendering="geometricPrecision" shape-rendering="geometricPrecision" transform="matrix(1,0,0,1,-83,-248)" stroke="rgb(255,204,0)">
      <rect x="675" y="459" clip-path="url(#clipPath2)" width="44" rx="4" ry="4" height="30" stroke="none"/>
    </g>
    <g text-rendering="geometricPrecision" stroke-miterlimit="1.45" shape-rendering="geometricPrecision" font-family="sans-serif" transform="matrix(1,0,0,1,-83,-248)" stroke-linecap="butt">
      <text x="689.5908" xml:space="preserve" y="478.5352" clip-path="url(#clipPath2)" stroke="none">fill</text>
      <rect x="675" y="459" clip-path="url(#clipPath2)" fill="none" width="44" rx="4" ry="4" height="30"/>
    </g>
    <g fill="rgb(255,204,0)" text-rendering="geometricPrecision" shape-rendering="geometricPrecision" transform="matrix(1,0,0,1,-83,-248)" stroke="rgb(255,204,0)">
      <rect x="741" y="459" clip-path="url(#clipPath2)" width="44" rx="4" ry="4" height="30" stroke="none"/>
    </g>
    <g text-rendering="geometricPrecision" stroke-miterlimit="1.45" shape-rendering="geometricPrecision" font-family="sans-serif" transform="matrix(1,0,0,1,-83,-248)" stroke-linecap="butt">
      <text x="744.707" xml:space="preserve" y="478.5352" clip-path="url(#clipPath2)" stroke="none">stroke</text>
      <rect x="741" y="459" clip-path="url(#clipPath2)" fill="none" width="44" rx="4" ry="4" height="30"/>
      <path fill="none" d="M210.9211 293 L175.7214 351.156" clip-path="url(#clipPath2)"/>
      <path d="M171.5789 358 L182.0701 350.323 L176.2392 350.3005 L173.5151 345.145 Z" clip-path="url(#clipPath2)" stroke="none"/>
      <path fill="none" d="M156.1881 388 L129.411 451.635" clip-path="url(#clipPath2)"/>
      <path d="M126.3082 459.0088 L135.571 449.8874 L129.7989 450.7133 L126.3538 446.0089 Z" clip-path="url(#clipPath2)" stroke="none"/>
      <path fill="none" d="M166.8812 388 L185.3785 451.3297" clip-path="url(#clipPath2)"/>
      <path d="M187.6214 459.0088 L189.0565 446.0883 L185.0981 450.3698 L179.4575 448.8919 Z" clip-path="url(#clipPath2)" stroke="none"/>
      <path fill="none" d="M230.9737 293 L273.8028 351.5434" clip-path="url(#clipPath2)"/>
      <path d="M278.5263 358 L275.4764 345.3628 L273.2123 350.7363 L267.4056 351.2673 Z" clip-path="url(#clipPath2)" stroke="none"/>
      <path fill="none" d="M284.9703 388 L265.8398 451.3504" clip-path="url(#clipPath2)"/>
      <path d="M263.527 459.0088 L271.7826 448.9666 L266.1288 450.3931 L262.2096 446.0757 Z" clip-path="url(#clipPath2)" stroke="none"/>
      <path fill="none" d="M295.6634 388 L321.7998 451.6091" clip-path="url(#clipPath2)"/>
      <path d="M324.8402 459.0088 L324.9044 446.0089 L321.4197 450.6841 L315.6547 449.8095 Z" clip-path="url(#clipPath2)" stroke="none"/>
      <path fill="none" d="M415.6053 293 L425.5258 350.118" clip-path="url(#clipPath2)"/>
      <path d="M426.8947 358 L429.7675 345.3214 L425.3546 349.1328 L419.915 347.0326 Z" clip-path="url(#clipPath2)" stroke="none"/>
      <path fill="none" d="M424.8218 388 L405.0574 451.3716" clip-path="url(#clipPath2)"/>
      <path d="M402.6755 459.0088 L411.0216 449.0417 L405.3551 450.417 L401.4751 446.0643 Z" clip-path="url(#clipPath2)" stroke="none"/>
      <path fill="none" d="M435.5149 388 L461.0112 451.5835" clip-path="url(#clipPath2)"/>
      <path d="M463.9887 459.0088 L464.1632 446.0099 L460.639 450.6554 L454.8817 449.7318 Z" clip-path="url(#clipPath2)" stroke="none"/>
      <path fill="none" d="M444.7228 388 L511.0664 453.3728" clip-path="url(#clipPath2)"/>
      <path d="M516.7648 458.9878 L511.7266 447.0038 L510.3541 452.6709 L504.7079 454.1268 Z" clip-path="url(#clipPath2)" stroke="none"/>
      <path fill="none" d="M619.75 298 L669.3442 352.1028" clip-path="url(#clipPath2)"/>
      <path d="M674.75 358 L670.3271 345.7755 L668.6685 351.3656 L662.9555 352.5327 Z" clip-path="url(#clipPath2)" stroke="none"/>
      <path fill="none" d="M677.5099 388 L630.2272 452.5345" clip-path="url(#clipPath2)"/>
      <path d="M625.499 458.9878 L636.6245 452.263 L630.8182 451.7279 L628.5579 446.3528 Z" clip-path="url(#clipPath2)" stroke="none"/>
      <path fill="none" d="M689.7624 388 L695.0674 451.037" clip-path="url(#clipPath2)"/>
      <path d="M695.7383 459.0088 L699.7144 446.6317 L694.9836 450.0405 L689.7496 447.4704 Z" clip-path="url(#clipPath2)" stroke="none"/>
      <path fill="none" d="M699.5643 388 L747.1778 452.5497" clip-path="url(#clipPath2)"/>
      <path d="M751.9266 458.9878 L748.8271 446.3627 L746.5842 451.745 L740.7796 452.2987 Z" clip-path="url(#clipPath2)" stroke="none"/>
    </g>
  </g>
</svg>
